<?xml version="1.0" standalone="no"?>
<!DOCTYPE svg PUBLIC "-//W3C//DTD SVG 20010904//EN"
 "http://www.w3.org/TR/2001/REC-SVG-20010904/DTD/svg10.dtd">
<svg version="1.0" xmlns="http://www.w3.org/2000/svg"
 width="400.000000pt" height="400.000000pt" viewBox="0 0 400.000000 400.000000"
 preserveAspectRatio="xMidYMid meet">
<metadata>
Created by potrace 1.14, written by Peter Selinger 2001-2017
</metadata>
<g transform="translate(0.000000,400.000000) scale(0.100000,-0.100000)"
fill="#000000" stroke="none">
<path d="M0 2460 c0 -847 3 -1540 7 -1540 3 0 15 7 25 17 10 9 21 13 26 9 4
-4 -3 -16 -16 -26 -23 -19 -30 -44 -10 -38 9 3 27 27 34 46 1 1 12 -2 25 -7
24 -10 24 -10 2 -10 -17 -1 -23 -7 -23 -22 0 -14 -5 -19 -13 -16 -17 6 -28 -1
-44 -30 -16 -29 -18 -216 -2 -193 7 11 8 3 4 -30 -4 -25 -9 -174 -11 -333 l-5
-287 2001 0 2000 0 0 280 c0 190 -3 280 -11 280 -5 0 -7 5 -4 10 4 6 1 34 -6
61 -12 45 -11 54 4 81 16 28 17 139 17 1659 l0 1629 -2000 0 -2000 0 0 -1540z
m3674 1515 c-14 -35 -114 -60 -131 -32 -4 7 -19 21 -33 30 -24 17 -22 17 72
17 82 0 96 -2 92 -15z m187 -27 c-16 -67 -70 -152 -112 -174 -45 -23 -39 -6
17 51 34 36 60 73 71 105 20 56 35 67 24 18z m-471 12 c0 -5 -7 -10 -15 -10
-8 0 -15 5 -15 10 0 6 7 10 15 10 8 0 15 -4 15 -10z m69 -46 c22 -28 27 -54
11 -54 -5 0 -10 5 -10 10 0 6 -8 10 -19 10 -24 0 -45 25 -37 45 8 23 32 18 55
-11z m-273 -331 c-33 -62 -81 -117 -95 -108 -7 3 -11 3 -10 -2 3 -18 -2 -32
-18 -48 -9 -10 -18 -38 -21 -64 -2 -25 -5 -62 -7 -81 -1 -19 -3 -40 -4 -47 0
-7 -10 -17 -21 -23 -16 -9 -18 -8 -14 5 4 8 1 15 -4 15 -19 0 -22 -16 -9 -49
10 -28 10 -34 -4 -44 -24 -19 -30 -44 -12 -59 9 -7 29 -40 45 -73 15 -33 28
-56 28 -52 0 5 6 2 14 -6 8 -7 12 -24 9 -39 -3 -18 2 -30 19 -44 13 -10 28
-30 35 -44 6 -14 12 -19 12 -12 1 6 8 12 16 12 10 0 15 -10 15 -30 l0 -30
-116 0 c-64 0 -134 -5 -155 -11 -35 -11 -40 -10 -58 12 -11 13 -20 28 -21 32
0 4 -11 18 -25 31 -14 13 -25 28 -25 35 0 6 -4 11 -10 11 -5 0 -7 -7 -4 -15 4
-8 1 -15 -5 -15 -6 0 -11 7 -11 15 0 8 -6 12 -14 9 -8 -3 -22 9 -36 31 -15 24
-25 33 -30 25 -5 -8 -10 -3 -14 13 -6 26 -69 73 -85 63 -5 -3 -15 2 -22 11
-12 14 -11 15 6 10 11 -3 34 -9 50 -13 l30 -7 -30 28 c-86 82 -272 166 -430
197 -91 17 -309 17 -407 -1 -43 -8 -78 -17 -78 -21 0 -4 -15 -10 -32 -14 -45
-9 -120 -38 -113 -44 7 -7 -44 -32 -66 -32 -12 0 -23 -10 -29 -25 -6 -15 -17
-25 -30 -25 -11 0 -21 -4 -21 -10 -1 -5 -2 -16 -3 -22 0 -7 -12 -15 -26 -16
-35 -5 -65 -33 -48 -45 9 -6 8 -7 -4 -3 -10 3 -20 1 -23 -4 -4 -6 -16 -10 -28
-10 -13 0 -38 -13 -57 -30 -19 -16 -41 -29 -48 -30 -14 0 -112 -90 -112 -102
0 -14 -47 -54 -58 -50 -16 5 -15 15 6 38 9 11 22 27 27 35 58 89 75 111 75
100 0 -8 23 16 51 53 28 36 55 63 60 61 4 -3 15 7 23 23 8 16 23 35 33 43 12
10 11 5 -5 -15 -38 -49 -26 -60 23 -22 58 43 210 123 295 153 l65 23 -48 0
c-30 0 -46 4 -42 10 3 6 23 10 43 10 20 1 55 7 77 15 52 19 80 18 36 -1 -18
-8 -31 -17 -28 -20 3 -3 14 -1 24 4 10 5 76 22 147 36 163 33 281 34 437 4 63
-12 140 -21 172 -20 52 2 63 -1 98 -29 40 -31 69 -33 69 -4 0 18 0 18 36 1 16
-8 65 -17 108 -21 75 -7 79 -6 74 13 -4 13 -1 19 10 18 9 -1 18 11 23 28 5 17
15 33 23 38 8 4 12 16 9 26 -3 13 6 22 32 35 20 9 45 17 56 17 25 0 66 40 61
61 -1 9 4 22 13 29 8 7 15 16 15 21 0 5 16 32 35 59 19 28 31 50 25 50 -5 0
-10 7 -10 15 0 20 26 19 34 -1 6 -14 10 -13 29 8 32 35 33 9 3 -49z m-96 11
c0 -8 -4 -14 -10 -14 -5 0 -10 9 -10 21 0 11 5 17 10 14 6 -3 10 -13 10 -21z
m-1650 -403 c0 -14 -12 -20 -61 -26 l-44 -7 25 21 c25 21 80 29 80 12z m170
-31 c0 -5 -5 -10 -11 -10 -5 0 -7 5 -4 10 3 6 8 10 11 10 2 0 4 -4 4 -10z
m-150 -64 c0 -3 -4 -8 -10 -11 -5 -3 -10 -1 -10 4 0 6 5 11 10 11 6 0 10 -2
10 -4z m1100 -131 c0 -9 -6 -12 -15 -9 -8 4 -12 10 -9 15 8 14 24 10 24 -6z
m567 -107 c-3 -7 -5 -2 -5 12 0 14 2 19 5 13 2 -7 2 -19 0 -25z m92 -58 c0
-15 -28 48 -28 65 0 11 6 2 14 -20 8 -22 15 -42 14 -45z m-2279 -27 c-11 -17
-11 -17 -6 0 3 10 6 24 7 30 0 9 2 9 5 0 3 -7 0 -20 -6 -30z m1208 -73 c138
-15 196 -28 268 -61 80 -36 145 -101 176 -177 23 -57 23 -60 23 -502 0 -437 0
-446 -22 -500 -43 -104 -131 -170 -283 -212 -76 -21 -106 -23 -295 -23 -187 0
-219 3 -295 23 -146 40 -215 83 -263 165 -43 73 -47 123 -47 547 0 399 5 471
37 533 39 78 136 148 243 177 54 15 234 37 308 39 29 1 96 -4 150 -9z m-1212
-44 c12 -17 14 -102 14 -504 0 -314 4 -490 10 -503 10 -17 22 -19 114 -19 143
0 141 3 141 -192 0 -145 -1 -150 -24 -169 -22 -18 -45 -19 -487 -19 -451 0
-465 1 -484 20 -18 18 -20 33 -20 168 0 200 -6 192 155 192 121 0 125 1 130
23 3 12 4 159 3 327 l-3 305 -100 5 c-150 7 -145 1 -145 190 1 156 5 179 40
193 8 3 156 5 328 4 298 -2 314 -3 328 -21z m2630 0 c12 -17 14 -102 14 -507
0 -268 3 -494 6 -503 5 -13 25 -16 112 -16 147 0 142 7 142 -191 0 -152 -1
-158 -22 -173 -20 -14 -82 -16 -484 -16 -440 0 -463 1 -485 19 -23 18 -24 26
-26 150 -2 132 6 188 29 203 7 4 65 8 128 8 63 0 121 4 128 8 9 7 12 79 10
328 l-3 319 -100 5 c-131 7 -141 13 -149 93 -16 149 0 272 37 287 12 5 163 8
335 7 298 -2 314 -3 328 -21z m-2269 -223 c-3 -10 -5 -4 -5 12 0 17 2 24 5 18
2 -7 2 -21 0 -30z m32 -424 c1 -349 -1 -408 -14 -419 -12 -10 -16 -9 -21 6
-18 56 -27 71 -57 90 -17 11 -53 26 -80 34 -52 14 -65 25 -42 34 8 3 17 1 20
-4 12 -19 33 -11 28 10 -3 11 -13 20 -23 20 -19 0 -32 21 -22 36 4 5 19 15 33
21 22 10 28 21 37 70 6 36 6 62 1 69 -6 8 -4 28 5 55 9 24 11 49 7 58 -5 9
-11 30 -15 46 -5 24 -4 26 4 13 16 -26 25 -22 27 10 7 85 14 125 27 144 8 11
12 26 9 34 -2 7 4 23 16 35 11 12 18 26 15 31 -3 5 0 7 8 6 8 -2 15 9 17 27 4
30 4 30 11 5 5 -14 8 -208 9 -431z m-59 386 c0 -3 -11 -17 -25 -31 -28 -28
-33 -20 -9 14 14 20 34 30 34 17z m1590 -181 c0 -2 -7 -4 -15 -4 -8 0 -15 4
-15 10 0 5 7 7 15 4 8 -4 15 -8 15 -10z m41 -140 c12 -15 -10 -79 -23 -66 -6
6 -7 33 -2 68 5 37 10 50 12 34 2 -14 8 -30 13 -36z m-21 -99 c0 -16 -72 -157
-77 -151 -2 1 7 27 21 57 13 30 27 69 31 87 6 31 25 36 25 7z m27 -235 c1 -14
-4 -20 -19 -20 -17 0 -18 2 -8 15 11 13 10 15 -6 9 -16 -5 -16 -4 -4 5 23 16
36 13 37 -9z m-152 -485 c17 -37 52 -70 85 -80 14 -4 44 -26 67 -48 40 -38 41
-41 29 -66 -15 -28 -106 -120 -146 -148 -14 -9 -27 -20 -30 -23 -10 -13 -162
-101 -216 -125 -91 -40 -210 -75 -283 -81 -57 -6 -74 -3 -100 12 -29 17 -32
23 -29 59 2 22 8 39 13 38 6 -1 11 24 13 55 2 34 10 67 20 81 19 25 86 66 142
86 55 19 174 80 237 121 70 45 172 150 174 179 1 15 3 14 6 -5 2 -14 10 -39
18 -55z m-1631 -160 c16 -14 41 -25 55 -25 19 -1 38 -16 71 -56 25 -31 66 -75
92 -100 26 -24 42 -44 37 -44 -22 0 -195 130 -254 189 -58 60 -59 86 -1 36z
m1896 -9 c0 -3 -4 -8 -10 -11 -5 -3 -10 -1 -10 4 0 6 5 11 10 11 6 0 10 -2 10
-4z m-2695 -51 c-16 -13 -32 -22 -34 -19 -7 6 40 44 54 43 6 0 -3 -11 -20 -24z
m-80 -51 c-18 -15 -25 -29 -21 -40 9 -23 -3 -36 -19 -21 -8 8 -10 16 -4 24 7
7 6 14 -2 19 -8 5 -9 3 -4 -6 6 -10 4 -12 -8 -7 -12 5 -17 1 -17 -13 0 -10 -5
-22 -10 -25 -15 -9 -40 14 -33 31 3 8 -1 14 -11 14 -9 0 -16 5 -16 10 0 9 33
14 85 13 11 0 22 2 25 6 3 3 14 11 25 17 33 19 39 3 10 -22z m3265 -34 c27
-27 25 -30 -10 -30 -31 0 -35 6 -24 34 8 20 10 20 34 -4z"/>
<path d="M2896 3244 c-4 -10 -1 -21 6 -25 16 -10 25 18 10 33 -6 6 -12 3 -16
-8z"/>
<path d="M2941 3134 c0 -11 3 -14 6 -6 3 7 2 16 -1 19 -3 4 -6 -2 -5 -13z"/>
<path d="M1177 3003 c-4 -3 -7 -11 -7 -17 0 -6 5 -5 12 2 6 6 9 14 7 17 -3 3
-9 2 -12 -2z"/>
<path d="M2985 2930 c3 -5 14 -10 23 -10 15 0 15 2 2 10 -20 13 -33 13 -25 0z"/>
<path d="M3019 2879 c26 -22 35 -20 25 5 -3 9 -16 16 -28 16 -21 -1 -21 -1 3
-21z"/>
<path d="M1926 2310 c-15 -5 -37 -17 -47 -26 -18 -16 -19 -36 -19 -319 0 -277
2 -305 18 -325 38 -47 218 -49 267 -4 l25 23 0 301 0 301 -25 23 c-14 13 -39
26 -56 30 -43 8 -128 6 -163 -4z m145 -140 c23 -13 26 -45 3 -36 -9 3 -27 9
-40 12 -20 5 -22 9 -13 20 14 17 24 17 50 4z m9 -363 c0 -7 -9 -13 -20 -13
-22 0 -27 12 -7 19 21 9 27 8 27 -6z m5 -64 c-3 -49 -5 -53 -20 -53 -8 0 -12
6 -9 13 3 8 -2 19 -10 26 -14 12 -13 15 7 31 27 22 35 19 32 -17z"/>
</g>
</svg>
